<svg width="18" height="18" fill="none" xmlns="http://www.w3.org/2000/svg"><path d="M13.745 2.836h-2.483v-.277c0-.931-.755-1.686-1.686-1.686H7.613c-.931 0-1.687.755-1.687 1.686v.277H3.444C2.648 2.836 2 3.484 2 4.276v1.719c0 .39.318.704.705.704h.063l.415 8.696c.044.9.783 1.605 1.683 1.605h7.45A1.68 1.68 0 0014 15.395l.415-8.696h.063c.39 0 .705-.317.705-.704V4.277a1.44 1.44 0 00-1.438-1.441zm-.74 3.863l-.412 8.63a.277.277 0 01-.277.265h-7.45a.279.279 0 01-.277-.265L4.18 6.7h8.825zM7.613 2.285h1.963c.151 0 .277.123.277.277v.277H7.339v-.277a.27.27 0 01.274-.277zM3.409 4.277c0-.016.013-.032.032-.032h10.3c.016 0 .032.013.032.032V5.29H3.41V4.277z" fill="#4A3C51"/><path d="M8.591 15.04c.39 0 .705-.318.705-.705V7.958a.706.706 0 00-1.41 0v6.377c0 .387.318.705.705.705zM11.045 15.04c.39 0 .705-.318.705-.705V7.958a.706.706 0 00-1.41 0v6.377c0 .387.315.705.705.705zM6.14 15.04c.39 0 .705-.318.705-.705V7.958a.706.706 0 00-1.41 0v6.377c0 .387.315.705.705.705z" fill="#4A3C51"/></svg>