<svg width="18" height="18" fill="none" xmlns="http://www.w3.org/2000/svg"><path d="M15.744 3.688A4.39 4.39 0 0012.706 2.5 4.404 4.404 0 009.67 3.688L9 4.321l-.669-.633A4.39 4.39 0 005.294 2.5a4.39 4.39 0 00-3.038 1.188A3.926 3.926 0 001 6.561c0 1.085.447 2.105 1.256 2.874l6.178 5.843c.15.142.354.222.566.222.213 0 .416-.08.566-.222l6.178-5.843A3.926 3.926 0 0017 6.56a3.928 3.928 0 00-1.256-2.873zm-1.131 4.674L9 13.67 3.388 8.362a2.464 2.464 0 01-.791-1.804c0-.682.281-1.32.79-1.803a2.752 2.752 0 011.907-.745c.722 0 1.397.266 1.906.745l1.234 1.168c.15.142.354.222.566.222.213 0 .416-.08.566-.222L10.8 4.755a2.752 2.752 0 011.906-.745c.722 0 1.397.266 1.907.745.509.482.79 1.12.79 1.803a2.475 2.475 0 01-.79 1.804z" fill="#4A3C51"/></svg>