<svg width="20" height="20" fill="none" xmlns="http://www.w3.org/2000/svg"><path d="M16.675 1.111H3.332c-1.226 0-2.22.996-2.22 2.218v9.706a2.22 2.22 0 002.216 2.217h1.709l-.283 2.522a1 1 0 00.216.74.993.993 0 00.676.371c.037.004.074.004.107.004.25 0 .49-.093.672-.26l3.759-3.38h6.488a2.22 2.22 0 002.217-2.218V3.33a2.215 2.215 0 00-2.213-2.218zm-9.73 12.51a1.008 1.008 0 00-.68-.37l-2.933-.005a.208.208 0 01-.208-.207v-9.71c0-.115.093-.208.208-.208h13.343c.116 0 .208.093.208.208v9.706a.208.208 0 01-.207.208H9.8c-.249 0-.486.093-.672.26l-2.083 1.872.115-1.014a1.009 1.009 0 00-.216-.74z" fill="#4A3C51"/></svg>