<svg width="16" height="17" fill="none" xmlns="http://www.w3.org/2000/svg"><path d="M14.471 8.664v-.901l1.13-.988a1.177 1.177 0 00.224-1.501l-1.39-2.354a1.177 1.177 0 00-1.394-.53l-1.43.482a6.679 6.679 0 00-.771-.441l-.3-1.483A1.177 1.177 0 009.361 0H6.608A1.177 1.177 0 005.43.948l-.3 1.483c-.269.13-.528.277-.777.441l-1.401-.506a1.177 1.177 0 00-.377-.035 1.177 1.177 0 00-1.018.589L.169 5.274A1.177 1.177 0 00.41 6.75L1.523 7.77v.9L.41 9.66a1.177 1.177 0 00-.241 1.5l1.389 2.355a1.177 1.177 0 001.018.588c.128.001.255-.019.377-.059l1.43-.482c.247.164.505.311.771.441l.3 1.483a1.177 1.177 0 001.177.948H9.41a1.177 1.177 0 001.178-.948l.3-1.483c.268-.13.528-.277.777-.441l1.424.482a1.177 1.177 0 001.395-.53l1.342-2.354a1.178 1.178 0 00-.241-1.477L14.47 8.664zm-1.053 4.261l-2.02-.683c-.472.4-1.012.714-1.594.924l-.418 2.113H6.608L6.19 13.19a5.51 5.51 0 01-1.59-.924l-2.024.66-1.389-2.355 1.601-1.413a5.239 5.239 0 010-1.842l-1.6-1.454 1.388-2.354 2.019.683a5.215 5.215 0 011.595-.924l.418-2.113h2.778l.418 2.09a5.51 5.51 0 011.589.923l2.025-.659 1.389 2.354-1.601 1.413c.109.61.109 1.233 0 1.842l1.6 1.454-1.388 2.354z" fill="#4A3C51"/><path d="M7.997 11.748a3.53 3.53 0 113.532-3.531 3.495 3.495 0 01-3.532 3.531zm0-5.886a2.302 2.302 0 00-2.354 2.355 2.301 2.301 0 002.354 2.354 2.301 2.301 0 002.355-2.354 2.303 2.303 0 00-2.355-2.355z" fill="#4A3C51"/></svg>