<svg width="18" height="18" fill="none" xmlns="http://www.w3.org/2000/svg"><path d="M16.15 6.52l-4.525-.385L9.86 2.057c-.318-.743-1.403-.743-1.72 0L6.372 6.145l-4.515.375c-.822.065-1.159 1.073-.533 1.604l3.43 2.915-1.027 4.326c-.187.788.682 1.411 1.392.99L9 14.063l3.879 2.301c.71.422 1.58-.202 1.393-.99l-1.029-4.335 3.43-2.915a.909.909 0 00-.523-1.604zm-7.151 5.83l-3.515 2.08.935-3.923-3.104-2.64L7.41 7.52l1.589-3.693 1.598 3.703 4.094.348-3.103 2.64.935 3.922-3.524-2.09z" fill="#4A3C51"/></svg>